<svg xmlns="http://www.w3.org/2000/svg" viewBox="0 0 48 48" role="img" aria-label="Gmail">
  <path fill="#4caf50" d="M45 16.18 42.91 14 24 28.77 5.09 14 3 16.18l17.91 15.5z"/>
  <path fill="#1e88e5" d="M3.41 10.59 3 12v24c0 1.1.9 2 2 2h3V16.18z"/>
  <path fill="#e53935" d="M45 12v24c0 1.1-.9 2-2 2h-3V16.18z"/>
  <path fill="#fbc02d" d="M24 28.77 42.91 14 45 10.59 43.59 9 24 23.54 4.41 9 3 10.59 5.09 14z"/>
  <path fill="#1565c0" d="M8 38h32c1.1 0 2-.9 2-2V16.18l-17.91 15.5z"/>
  <path fill="#c62828" d="M24 28.77 5.09 14 8 16.18V36h3V28.77z"/>
</svg>
