<svg xmlns="http://www.w3.org/2000/svg" viewBox="0 0 64 64">
  <defs>
    <linearGradient id="soniaGradient" x1="0%" y1="0%" x2="100%" y2="100%">
      <stop offset="0%" stop-color="#0f172a" />
      <stop offset="100%" stop-color="#1d4ed8" />
    </linearGradient>
  </defs>
  <rect width="64" height="64" rx="16" fill="url(#soniaGradient)" />
  <path d="M20 20c3.5-4 8.2-6 14-6 7 0 12.5 2.8 16.5 8.5l-7 4.2c-2.2-3-5.4-4.5-9.6-4.5-3.2 0-5.6.8-7.2 2.4-1.6 1.4-2.4 3.1-2.4 5 0 2.2 1 4 3.1 5.4 1.3.9 4 1.8 8.1 2.8 4.7 1.1 8.1 2.7 10.2 4.9 2.2 2.2 3.3 5.1 3.3 8.7 0 4.2-1.6 7.7-4.9 10.3C40.8 64.6 36.5 66 31 66c-8.1 0-14.2-3.1-18.5-9.4l7.1-4.1c2.9 3.9 6.7 5.8 11.6 5.8 3 0 5.4-.6 7.1-1.8 1.8-1.4 2.7-3.2 2.7-5.5 0-2.3-.9-4-2.8-5.3-1.8-1.2-4.8-2.2-9-3.2-4.3-1-7.5-2.5-9.7-4.7-2.1-2-3.2-4.8-3.2-8.3 0-3.7 1.2-6.8 3.7-9.4Z" fill="#f8fafc"/>
</svg>
